<svg xmlns="http://www.w3.org/2000/svg" xmlns:xlink="http://www.w3.org/1999/xlink" width="109" height="109" viewBox="0 0 109 109"><defs><style>.a{fill:url(#a);}.b{fill:#fff;}</style><linearGradient id="a" x1="0.675" x2="0.323" y2="0.942" gradientUnits="objectBoundingBox"><stop offset="0" stop-color="#0884df"/><stop offset="1" stop-color="#05e8ba"/></linearGradient></defs><g transform="translate(-320 -494)"><circle class="a" cx="54.5" cy="54.5" r="54.5" transform="translate(320 494)"/><g transform="translate(353.131 523.726)"><path class="b" d="M4.88,17.865a1.506,1.506,0,0,1-.758-.2,1.462,1.462,0,0,1-.544-2.017c1.9-3.17,7.68-10.571,20.292-10.571A24.046,24.046,0,0,1,38.111,9.346a24,24,0,0,1,5.99,6.218,1.457,1.457,0,0,1-.394,2.049,1.529,1.529,0,0,1-2.092-.394C40.03,14.94,35.2,8.012,23.87,8.012c-11.061,0-16.061,6.376-17.69,9.111A1.478,1.478,0,0,1,4.88,17.865Z" transform="translate(0 1.588)"/><path class="b" d="M29.742,45.258a1.508,1.508,0,0,1-.373-.042C20.219,42.95,16.8,33.8,16.665,33.423l-.021-.084c-.074-.263-1.91-6.536.908-10.209A6.959,6.959,0,0,1,23.4,20.6a6.265,6.265,0,0,1,5.349,2.3,11.356,11.356,0,0,1,1.76,4.336c.8,3.135,1.379,4.782,4.709,4.951a3.453,3.453,0,0,0,2.968-1.509c1.473-1.986,1.729-5.223.619-8.08-1.429-3.69-6.493-10.644-15.421-10.644a15.767,15.767,0,0,0-10.122,3.526,16.216,16.216,0,0,0-5.053,7.366C6.567,28,8.725,36.093,8.745,36.167a1.462,1.462,0,0,1-1.069,1.8,1.516,1.516,0,0,1-1.847-1.044c-.1-.37-2.4-9.007-.5-14.96A18.813,18.813,0,0,1,23.389,9.008a19.046,19.046,0,0,1,12.139,4.36,20.676,20.676,0,0,1,6.086,8.172c1.473,3.8,1.078,8.066-1,10.852a6.421,6.421,0,0,1-5.551,2.724c-5.7-.286-6.727-4.266-7.474-7.168-.768-2.978-1.26-4.413-4.2-4.413A4.045,4.045,0,0,0,19.942,24.9a7.127,7.127,0,0,0-.929,4.646,15.02,15.02,0,0,0,.5,2.936c.234.591,3.288,8.08,10.6,9.892A1.466,1.466,0,0,1,31.2,44.155a1.514,1.514,0,0,1-1.459,1.1Z" transform="translate(0.482 3.164)"/><path class="b" d="M16.371,42.962a1.528,1.528,0,0,1-1.1-.464A23.611,23.611,0,0,1,8.758,28.985v-.029c-.437-3.557.2-8.593,3.341-12.056,2.317-2.555,5.573-3.854,9.663-3.854a12.011,12.011,0,0,1,11.007,6.493,18.05,18.05,0,0,1,2.07,6.281,1.485,1.485,0,0,1-1.345,1.616,1.5,1.5,0,0,1-1.655-1.309,15.174,15.174,0,0,0-1.76-5.25,9.019,9.019,0,0,0-8.327-4.888c-3.192,0-5.691.961-7.409,2.857-2.478,2.734-2.956,6.947-2.616,9.733a20.716,20.716,0,0,0,5.733,11.909,1.449,1.449,0,0,1-.074,2.08,1.522,1.522,0,0,1-1.015.394Z" transform="translate(2.111 4.785)"/><path class="b" d="M29.913,35.31a12.507,12.507,0,0,1-8.1-2.65c-4.377-3.526-4.867-9.27-4.889-9.513a1.505,1.505,0,0,1,3-.233c.011.084.448,4.783,3.822,7.489,2,1.595,4.665,2.227,7.953,1.857a1.5,1.5,0,0,1,1.666,1.3,1.47,1.47,0,0,1-1.324,1.626A18.423,18.423,0,0,1,29.913,35.31Z" transform="translate(5.436 8.203)"/><path class="b" d="M36.269,4.357c-1.25-.814-5.68-3.232-14.01-3.232C13.515,1.125,9.074,3.8,8.092,4.476a1.142,1.142,0,0,0-.181.137.035.035,0,0,1-.021.01,1.466,1.466,0,0,0-.5,1.1A1.484,1.484,0,0,0,8.9,7.185,1.533,1.533,0,0,0,9.77,6.91c.042-.031,3.865-2.839,12.492-2.839s12.47,2.8,12.512,2.818a1.5,1.5,0,0,0,.908.3,1.484,1.484,0,0,0,1.507-1.467,1.469,1.469,0,0,0-.918-1.362Z" transform="translate(1.611)"/></g></g></svg>