<svg xmlns="http://www.w3.org/2000/svg" xmlns:xlink="http://www.w3.org/1999/xlink" width="109" height="109" viewBox="0 0 109 109"><defs><style>.a{fill:url(#a);}.b{fill:#fff;}</style><linearGradient id="a" x1="0.675" x2="0.323" y2="0.942" gradientUnits="objectBoundingBox"><stop offset="0" stop-color="#0884df"/><stop offset="1" stop-color="#05e8ba"/></linearGradient></defs><g transform="translate(-511 -494)"><circle class="a" cx="54.5" cy="54.5" r="54.5" transform="translate(511 494)"/><path class="b" d="M53.128,24.439H50.753V29.19a1.191,1.191,0,0,1-1.188,1.188H31.751a1.191,1.191,0,0,1-1.188-1.188V24.439H28.188A1.191,1.191,0,0,0,27,25.627V56.506a1.191,1.191,0,0,0,1.188,1.188H53.128a1.191,1.191,0,0,0,1.188-1.188V25.627A1.191,1.191,0,0,0,53.128,24.439ZM32.819,53.418c-.059.119-.119.3-.238.356l-.178.178c-.059.059-.119.059-.178.119s-.119.059-.238.059h-.238a1.172,1.172,0,0,1-.831-.356,1.242,1.242,0,0,1-.238-.356.714.714,0,0,1-.119-.475,1.172,1.172,0,0,1,.356-.831c.059-.059.119-.119.178-.119.059-.059.119-.059.178-.119.059,0,.119-.059.238-.059h.475c.059,0,.119.059.238.059.059.059.119.059.178.119s.119.119.178.119a1.172,1.172,0,0,1,.356.831A.714.714,0,0,1,32.819,53.418Zm.119-6.176c0,.059-.059.178-.059.238s-.059.119-.119.178-.059.119-.119.178a1.426,1.426,0,0,1-.891.356,1.172,1.172,0,0,1-.831-.356l-.178-.178c-.059-.059-.059-.119-.119-.178s-.059-.119-.059-.238v-.475c0-.059.059-.178.059-.238s.059-.119.119-.178.059-.119.119-.178a1.03,1.03,0,0,1,1.069-.3c.059,0,.119.059.238.059.059.059.119.059.178.119s.119.119.178.119c.059.059.119.119.119.178.059.059.059.119.119.178s.059.119.059.238V47C32.819,47.064,32.938,47.183,32.938,47.242Zm5.819,6.176c-.059.119-.119.3-.238.356a1.188,1.188,0,0,1-2.019-.831v-.238c0-.059.059-.178.059-.238s.059-.119.119-.178.059-.119.119-.178.119-.119.178-.119c.059-.059.119-.059.178-.119.059,0,.119-.059.238-.059a1.349,1.349,0,0,1,1.069.3,1.037,1.037,0,0,1,.416.831A.714.714,0,0,1,38.758,53.418Zm.119-6.176c0,.059-.059.178-.059.238s-.059.119-.119.178-.059.119-.119.178-.119.119-.178.119c-.059.059-.119.059-.178.119s-.119.059-.238.059h-.238a1.172,1.172,0,0,1-.831-.356c-.059-.059-.119-.119-.119-.178-.059-.059-.059-.119-.119-.178s-.059-.119-.059-.238v-.475c0-.059.059-.178.059-.238s.059-.119.119-.178.059-.119.119-.178a1.03,1.03,0,0,1,1.069-.3c.059,0,.119.059.238.059.059.059.119.059.178.119s.119.119.178.119c.059.059.119.119.119.178.059.059.059.119.119.178s.059.119.059.238v.534ZM44.7,53.418c-.059.119-.119.3-.238.356a1.172,1.172,0,0,1-.831.356H43.39c-.059,0-.178-.059-.238-.059s-.119-.059-.178-.119l-.178-.178a1.242,1.242,0,0,1-.238-.356.714.714,0,0,1-.119-.475v-.238c0-.059.059-.178.059-.238s.059-.119.119-.178.059-.119.119-.178a1.148,1.148,0,0,1,1.663,0c.059.059.119.119.119.178.059.059.059.119.119.178s.059.119.059.238v.238A.361.361,0,0,1,44.7,53.418Zm.119-6.176c0,.059-.059.178-.059.238s-.059.119-.119.178-.059.119-.119.178a1.426,1.426,0,0,1-.891.356,1.172,1.172,0,0,1-.831-.356l-.178-.178c-.059-.059-.059-.119-.119-.178s-.059-.119-.059-.238v-.475c0-.059.059-.178.059-.238s.059-.119.119-.178.059-.119.119-.178.119-.119.178-.119.119-.059.178-.119c.059,0,.119-.059.238-.059h.475c.059,0,.119.059.238.059.059.059.119.059.178.119s.119.119.178.119c.059.059.119.119.119.178.059.059.059.119.119.178s.059.119.059.238V47C44.7,47.064,44.815,47.183,44.815,47.242Zm5.819,6.176c-.059.119-.119.3-.238.356l-.178.178c-.059.059-.119.059-.178.119-.059,0-.119.059-.238.059h-.238a1.172,1.172,0,0,1-.831-.356,1.242,1.242,0,0,1-.238-.356.714.714,0,0,1-.119-.475v-.238c0-.059.059-.178.059-.238s.059-.119.119-.178.059-.119.119-.178a1.148,1.148,0,0,1,1.663,0c.059.059.119.119.119.178.059.059.059.119.119.178s.059.119.059.238v.238A.361.361,0,0,1,50.634,53.418Zm.119-6.176c0,.059-.059.178-.059.238s-.059.119-.119.178l-.178.178a1.242,1.242,0,0,1-.356.238,1.01,1.01,0,0,1-.95,0c-.119-.059-.3-.119-.356-.238l-.178-.178c-.059-.059-.059-.119-.119-.178s-.059-.119-.059-.238v-.475c0-.059.059-.178.059-.238s.059-.119.119-.178.059-.119.119-.178.119-.119.178-.119.119-.059.178-.119c.059,0,.119-.059.238-.059a1.35,1.35,0,0,1,1.069.3c.059.059.119.119.119.178.059.059.059.119.119.178s.059.119.059.238V47C50.634,47.064,50.753,47.183,50.753,47.242Zm0-6.176a1.191,1.191,0,0,1-1.188,1.188H31.751a1.191,1.191,0,0,1-1.188-1.188V35.128a1.191,1.191,0,0,1,1.188-1.188H49.565a1.191,1.191,0,0,1,1.188,1.188ZM32.938,36.316H48.378v3.563H32.938ZM48.378,10.188A1.191,1.191,0,0,0,47.19,9H38.876V28h9.5ZM44.815,23.252a1.188,1.188,0,1,1-2.375,0v-9.5a1.188,1.188,0,1,1,2.375,0ZM36.5,28H32.938V10.188A1.191,1.191,0,0,1,34.126,9H36.5Z" transform="translate(524.447 514.851)"/></g></svg>