<svg xmlns="http://www.w3.org/2000/svg" xmlns:xlink="http://www.w3.org/1999/xlink" width="109" height="109" viewBox="0 0 109 109"><defs><style>.a{fill:url(#a);}.b{fill:#fff;}</style><linearGradient id="a" x1="0.675" x2="0.323" y2="0.942" gradientUnits="objectBoundingBox"><stop offset="0" stop-color="#0884df"/><stop offset="1" stop-color="#05e8ba"/></linearGradient></defs><g transform="translate(-126 -494)"><circle class="a" cx="54.5" cy="54.5" r="54.5" transform="translate(126 494)"/><g transform="translate(101.683 296.372)"><path class="b" d="M47.026,12.134,57.435,22.543H49.6a20.185,20.185,0,0,1-6.124,14.818,20.043,20.043,0,0,1-14.7,6.124A20.224,20.224,0,0,1,17.633,40.18l3.8-3.8a14.87,14.87,0,0,0,7.347,1.837A15.107,15.107,0,0,0,39.86,33.629a15.1,15.1,0,0,0,4.594-11.085H36.617ZM13.1,22.543h7.837L10.409,32.953,0,22.543H7.837A20.185,20.185,0,0,1,13.961,7.725,20.185,20.185,0,0,1,28.779,1.6,20.224,20.224,0,0,1,39.924,4.907L36,8.7a14.629,14.629,0,0,0-7.225-1.837A15.107,15.107,0,0,0,17.7,11.458,15.1,15.1,0,0,0,13.1,22.543Z" transform="translate(50.099 229.585)"/><path class="b" d="M21.765,8.321V6H9V8.321h4.062a3.475,3.475,0,0,1,3.267,2.321H9v2.321h7.329a3.474,3.474,0,0,1-3.267,2.321H9v2.8l6.482,6.482h3.282L11.8,17.6h1.26a5.81,5.81,0,0,0,5.684-4.642h3.02V10.642h-3.02a5.724,5.724,0,0,0-1.072-2.321Z" transform="translate(63.434 236.844)"/></g></g></svg>